<svg width="1200" height="294" viewBox="0 0 1200 294" fill="none" xmlns="http://www.w3.org/2000/svg">
<rect width="1200" height="294" fill="#141721"/>
<path d="M131.496 45.4336V56H129.221V45.4336H131.496ZM130.529 50.1016V52.0059C130.282 52.1296 130.012 52.2402 129.719 52.3379C129.426 52.4355 129.117 52.5169 128.791 52.582C128.472 52.6406 128.14 52.6699 127.795 52.6699C127.02 52.6699 126.343 52.5267 125.764 52.2402C125.184 51.9538 124.735 51.5143 124.416 50.9219C124.104 50.3229 123.947 49.5645 123.947 48.6465V45.4238H126.213V48.6465C126.213 49.1608 126.271 49.5742 126.389 49.8867C126.512 50.1927 126.691 50.4141 126.926 50.5508C127.16 50.681 127.45 50.7461 127.795 50.7461C128.133 50.7461 128.446 50.7201 128.732 50.668C129.019 50.6094 129.305 50.5312 129.592 50.4336C129.885 50.3359 130.197 50.2253 130.529 50.1016ZM138.384 52.1035L141.557 45.4336H143.774V56H141.518V49.3398L138.345 56H136.128V45.4336H138.384V52.1035ZM154.805 51.1465V50.2969C154.805 49.4766 154.906 48.7507 155.108 48.1191C155.31 47.4876 155.596 46.9603 155.967 46.5371C156.345 46.1074 156.788 45.7852 157.295 45.5703C157.803 45.349 158.363 45.2383 158.975 45.2383C159.6 45.2383 160.166 45.349 160.674 45.5703C161.189 45.7852 161.631 46.1074 162.002 46.5371C162.38 46.9603 162.67 47.4876 162.871 48.1191C163.073 48.7507 163.174 49.4766 163.174 50.2969V51.1465C163.174 51.9668 163.073 52.6927 162.871 53.3242C162.67 53.9557 162.38 54.4863 162.002 54.916C161.631 55.3392 161.192 55.6582 160.684 55.873C160.176 56.0879 159.613 56.1953 158.995 56.1953C158.383 56.1953 157.819 56.0879 157.305 55.873C156.797 55.6582 156.355 55.3392 155.977 54.916C155.599 54.4863 155.31 53.9557 155.108 53.3242C154.906 52.6927 154.805 51.9668 154.805 51.1465ZM157.08 50.2969V51.1465C157.08 51.6738 157.126 52.1361 157.217 52.5332C157.308 52.9238 157.439 53.2493 157.608 53.5098C157.777 53.7702 157.979 53.9655 158.213 54.0957C158.448 54.2259 158.708 54.291 158.995 54.291C159.314 54.291 159.59 54.2259 159.825 54.0957C160.065 53.9655 160.264 53.7702 160.42 53.5098C160.583 53.2493 160.704 52.9238 160.782 52.5332C160.86 52.1361 160.899 51.6738 160.899 51.1465V50.2969C160.899 49.776 160.853 49.3203 160.762 48.9297C160.671 48.5326 160.541 48.2038 160.371 47.9434C160.202 47.6764 159.997 47.4779 159.756 47.3477C159.522 47.2174 159.261 47.1523 158.975 47.1523C158.695 47.1523 158.438 47.2174 158.204 47.3477C157.976 47.4779 157.777 47.6764 157.608 47.9434C157.439 48.2038 157.308 48.5326 157.217 48.9297C157.126 49.3203 157.08 49.776 157.08 50.2969ZM172.855 40.8047H174.681C174.681 41.3776 174.609 41.8529 174.466 42.2305C174.329 42.6081 174.127 42.9173 173.861 43.1582C173.6 43.3926 173.278 43.5846 172.894 43.7344C172.51 43.8841 172.07 44.0176 171.575 44.1348C171.133 44.2454 170.732 44.4277 170.374 44.6816C170.023 44.9355 169.726 45.2871 169.486 45.7363C169.245 46.179 169.072 46.7454 168.968 47.4355C168.87 48.1257 168.851 48.9688 168.909 49.9648V50.6094L167.122 50.7852V50.1406C167.122 48.8971 167.217 47.8132 167.405 46.8887C167.601 45.9577 167.877 45.1732 168.236 44.5352C168.594 43.8971 169.017 43.3926 169.505 43.0215C170 42.6439 170.543 42.3802 171.136 42.2305C171.494 42.1263 171.8 42.0221 172.054 41.918C172.314 41.8138 172.513 41.6771 172.65 41.5078C172.786 41.332 172.855 41.0977 172.855 40.8047ZM171.683 46.0293C172.282 46.0293 172.806 46.153 173.255 46.4004C173.711 46.6413 174.095 46.9798 174.407 47.416C174.726 47.8522 174.964 48.3665 175.12 48.959C175.283 49.5514 175.364 50.196 175.364 50.8926V51.1074C175.364 51.8366 175.273 52.5137 175.091 53.1387C174.915 53.7572 174.652 54.2975 174.3 54.7598C173.955 55.2155 173.525 55.5703 173.011 55.8242C172.497 56.0781 171.907 56.2051 171.243 56.2051C170.586 56.2051 170 56.0716 169.486 55.8047C168.978 55.5378 168.548 55.1667 168.196 54.6914C167.845 54.2096 167.578 53.6432 167.396 52.9922C167.213 52.3411 167.122 51.6348 167.122 50.873V50.6582C167.122 50.528 167.161 50.401 167.239 50.2773C167.318 50.1471 167.412 50.0072 167.523 49.8574C167.633 49.7077 167.728 49.5352 167.806 49.3398C168.092 48.6758 168.421 48.0964 168.792 47.6016C169.17 47.1068 169.599 46.7227 170.081 46.4492C170.563 46.1693 171.097 46.0293 171.683 46.0293ZM171.234 47.9434C170.784 47.9434 170.426 48.0801 170.159 48.3535C169.892 48.6204 169.697 48.9785 169.573 49.4277C169.456 49.877 169.398 50.3652 169.398 50.8926V51.0977C169.398 51.5339 169.427 51.944 169.486 52.3281C169.551 52.7122 169.655 53.054 169.798 53.3535C169.948 53.6465 170.14 53.8776 170.374 54.0469C170.615 54.2096 170.905 54.291 171.243 54.291C171.588 54.291 171.878 54.2096 172.112 54.0469C172.347 53.8776 172.536 53.6465 172.679 53.3535C172.822 53.0605 172.926 52.722 172.991 52.3379C173.057 51.9473 173.089 51.5371 173.089 51.1074V50.8926C173.089 50.4954 173.057 50.1211 172.991 49.7695C172.926 49.4115 172.822 49.0957 172.679 48.8223C172.536 48.5488 172.344 48.334 172.103 48.1777C171.868 48.0215 171.579 47.9434 171.234 47.9434ZM179.088 51.1465V50.2969C179.088 49.4766 179.189 48.7507 179.391 48.1191C179.592 47.4876 179.879 46.9603 180.25 46.5371C180.628 46.1074 181.07 45.7852 181.578 45.5703C182.086 45.349 182.646 45.2383 183.258 45.2383C183.883 45.2383 184.449 45.349 184.957 45.5703C185.471 45.7852 185.914 46.1074 186.285 46.5371C186.663 46.9603 186.952 47.4876 187.154 48.1191C187.356 48.7507 187.457 49.4766 187.457 50.2969V51.1465C187.457 51.9668 187.356 52.6927 187.154 53.3242C186.952 53.9557 186.663 54.4863 186.285 54.916C185.914 55.3392 185.475 55.6582 184.967 55.873C184.459 56.0879 183.896 56.1953 183.277 56.1953C182.665 56.1953 182.102 56.0879 181.588 55.873C181.08 55.6582 180.637 55.3392 180.26 54.916C179.882 54.4863 179.592 53.9557 179.391 53.3242C179.189 52.6927 179.088 51.9668 179.088 51.1465ZM181.363 50.2969V51.1465C181.363 51.6738 181.409 52.1361 181.5 52.5332C181.591 52.9238 181.721 53.2493 181.891 53.5098C182.06 53.7702 182.262 53.9655 182.496 54.0957C182.73 54.2259 182.991 54.291 183.277 54.291C183.596 54.291 183.873 54.2259 184.107 54.0957C184.348 53.9655 184.547 53.7702 184.703 53.5098C184.866 53.2493 184.986 52.9238 185.064 52.5332C185.143 52.1361 185.182 51.6738 185.182 51.1465V50.2969C185.182 49.776 185.136 49.3203 185.045 48.9297C184.954 48.5326 184.824 48.2038 184.654 47.9434C184.485 47.6764 184.28 47.4779 184.039 47.3477C183.805 47.2174 183.544 47.1523 183.258 47.1523C182.978 47.1523 182.721 47.2174 182.486 47.3477C182.258 47.4779 182.06 47.6764 181.891 47.9434C181.721 48.2038 181.591 48.5326 181.5 48.9297C181.409 49.3203 181.363 49.776 181.363 50.2969ZM196.054 51.4883H193.309L193.3 49.7988H195.507C195.845 49.7988 196.122 49.7565 196.337 49.6719C196.558 49.5807 196.721 49.4473 196.825 49.2715C196.936 49.0892 196.991 48.8678 196.991 48.6074C196.991 48.3861 196.958 48.194 196.893 48.0312C196.828 47.8685 196.731 47.735 196.6 47.6309C196.477 47.5267 196.32 47.4518 196.132 47.4062C195.949 47.3542 195.735 47.3281 195.487 47.3281H194.061V56H191.786V45.4336H195.487C196.067 45.4336 196.587 45.4922 197.05 45.6094C197.518 45.7266 197.919 45.9056 198.251 46.1465C198.583 46.3874 198.833 46.6934 199.003 47.0645C199.179 47.429 199.266 47.862 199.266 48.3633C199.266 48.6823 199.205 48.985 199.081 49.2715C198.964 49.5579 198.785 49.8118 198.544 50.0332C198.309 50.2546 198.02 50.4368 197.675 50.5801C197.33 50.7168 196.932 50.8014 196.483 50.834L196.054 51.4883ZM196.054 56H192.636L193.583 54.1055H196.044C196.363 54.1055 196.617 54.0566 196.805 53.959C197.001 53.8548 197.144 53.7083 197.235 53.5195C197.333 53.3242 197.382 53.0898 197.382 52.8164C197.382 52.543 197.336 52.3086 197.245 52.1133C197.16 51.9115 197.02 51.7585 196.825 51.6543C196.63 51.5436 196.369 51.4883 196.044 51.4883H193.788L193.807 49.7988H196.444L197.069 50.4629C197.655 50.5085 198.14 50.6517 198.524 50.8926C198.908 51.1335 199.192 51.4362 199.374 51.8008C199.563 52.1654 199.657 52.5625 199.657 52.9922C199.657 53.487 199.576 53.9232 199.413 54.3008C199.25 54.6784 199.016 54.9941 198.71 55.248C198.41 55.4954 198.036 55.6842 197.587 55.8145C197.137 55.9382 196.626 56 196.054 56ZM205.656 50.8242H208L205.451 56H203.107L205.656 50.8242ZM207.218 45.4336H211.134V56H208.869V47.3281H207.218C206.893 47.3281 206.623 47.4062 206.408 47.5625C206.193 47.7122 206.033 47.9076 205.929 48.1484C205.832 48.3828 205.783 48.627 205.783 48.8809C205.783 49.1283 205.832 49.3691 205.929 49.6035C206.027 49.8314 206.177 50.0202 206.379 50.1699C206.587 50.3132 206.847 50.3848 207.16 50.3848H209.601V52.1328H207.16C206.593 52.1328 206.082 52.0514 205.627 51.8887C205.177 51.7194 204.793 51.4883 204.474 51.1953C204.162 50.8958 203.921 50.5443 203.752 50.1406C203.589 49.737 203.507 49.2975 203.507 48.8223C203.507 48.334 203.592 47.8848 203.761 47.4746C203.931 47.0579 204.175 46.6999 204.494 46.4004C204.819 46.0944 205.21 45.8568 205.666 45.6875C206.121 45.5182 206.639 45.4336 207.218 45.4336ZM219.623 50.9512H217.827V49.75H219.252C219.545 49.75 219.776 49.6979 219.946 49.5938C220.115 49.4831 220.235 49.3301 220.307 49.1348C220.385 48.9329 220.424 48.7018 220.424 48.4414C220.424 48.2135 220.385 47.9954 220.307 47.7871C220.235 47.5723 220.112 47.3997 219.936 47.2695C219.76 47.1393 219.516 47.0742 219.204 47.0742C218.943 47.0742 218.709 47.1328 218.5 47.25C218.299 47.3607 218.139 47.5169 218.022 47.7188C217.911 47.9206 217.856 48.1549 217.856 48.4219H215.58C215.58 47.7643 215.74 47.1979 216.059 46.7227C216.385 46.2474 216.814 45.8828 217.348 45.6289C217.888 45.375 218.481 45.248 219.125 45.248C219.679 45.248 220.174 45.3164 220.61 45.4531C221.052 45.5833 221.427 45.7786 221.733 46.0391C222.045 46.293 222.283 46.612 222.446 46.9961C222.608 47.3737 222.69 47.8132 222.69 48.3145C222.69 48.6725 222.618 49.0111 222.475 49.3301C222.338 49.6491 222.133 49.9323 221.86 50.1797C221.593 50.4206 221.271 50.6094 220.893 50.7461C220.515 50.8828 220.092 50.9512 219.623 50.9512ZM217.827 50.2676H219.623C220.144 50.2676 220.607 50.3294 221.01 50.4531C221.414 50.5703 221.752 50.7461 222.026 50.9805C222.299 51.2148 222.508 51.5046 222.651 51.8496C222.794 52.1882 222.866 52.5788 222.866 53.0215C222.866 53.5163 222.774 53.9622 222.592 54.3594C222.41 54.75 222.153 55.082 221.821 55.3555C221.489 55.6289 221.095 55.8372 220.639 55.9805C220.183 56.1237 219.679 56.1953 219.125 56.1953C218.52 56.1953 217.934 56.0781 217.368 55.8438C216.808 55.6094 216.345 55.248 215.981 54.7598C215.623 54.265 215.444 53.6335 215.444 52.8652H217.719C217.719 53.1257 217.774 53.373 217.885 53.6074C218.002 53.8353 218.172 54.0208 218.393 54.1641C218.614 54.3073 218.885 54.3789 219.204 54.3789C219.529 54.3789 219.789 54.3105 219.985 54.1738C220.187 54.0306 220.336 53.8483 220.434 53.627C220.532 53.3991 220.58 53.1582 220.58 52.9043C220.58 52.5592 220.532 52.2826 220.434 52.0742C220.336 51.8594 220.19 51.7031 219.995 51.6055C219.799 51.5013 219.552 51.4492 219.252 51.4492H217.827V50.2676ZM229.47 45.4336V56H227.185V45.4336H229.47ZM235.241 45.4336L231.218 51.8203H228.933L228.62 49.6328H230.222L232.429 45.4336H235.241ZM232.517 56L230.105 51.4102L231.902 50.0625L235.476 56H232.517ZM238.35 51.1465V50.2969C238.35 49.4766 238.451 48.7507 238.652 48.1191C238.854 47.4876 239.141 46.9603 239.512 46.5371C239.889 46.1074 240.332 45.7852 240.84 45.5703C241.348 45.349 241.908 45.2383 242.52 45.2383C243.145 45.2383 243.711 45.349 244.219 45.5703C244.733 45.7852 245.176 46.1074 245.547 46.5371C245.924 46.9603 246.214 47.4876 246.416 48.1191C246.618 48.7507 246.719 49.4766 246.719 50.2969V51.1465C246.719 51.9668 246.618 52.6927 246.416 53.3242C246.214 53.9557 245.924 54.4863 245.547 54.916C245.176 55.3392 244.736 55.6582 244.229 55.873C243.721 56.0879 243.158 56.1953 242.539 56.1953C241.927 56.1953 241.364 56.0879 240.85 55.873C240.342 55.6582 239.899 55.3392 239.521 54.916C239.144 54.4863 238.854 53.9557 238.652 53.3242C238.451 52.6927 238.35 51.9668 238.35 51.1465ZM240.625 50.2969V51.1465C240.625 51.6738 240.671 52.1361 240.762 52.5332C240.853 52.9238 240.983 53.2493 241.152 53.5098C241.322 53.7702 241.523 53.9655 241.758 54.0957C241.992 54.2259 242.253 54.291 242.539 54.291C242.858 54.291 243.135 54.2259 243.369 54.0957C243.61 53.9655 243.809 53.7702 243.965 53.5098C244.128 53.2493 244.248 52.9238 244.326 52.5332C244.404 52.1361 244.443 51.6738 244.443 51.1465V50.2969C244.443 49.776 244.398 49.3203 244.307 48.9297C244.215 48.5326 244.085 48.2038 243.916 47.9434C243.747 47.6764 243.542 47.4779 243.301 47.3477C243.066 47.2174 242.806 47.1523 242.52 47.1523C242.24 47.1523 241.982 47.2174 241.748 47.3477C241.52 47.4779 241.322 47.6764 241.152 47.9434C240.983 48.2038 240.853 48.5326 240.762 48.9297C240.671 49.3203 240.625 49.776 240.625 50.2969ZM255.315 51.4883H252.571L252.561 49.7988H254.768C255.107 49.7988 255.384 49.7565 255.598 49.6719C255.82 49.5807 255.983 49.4473 256.087 49.2715C256.197 49.0892 256.253 48.8678 256.253 48.6074C256.253 48.3861 256.22 48.194 256.155 48.0312C256.09 47.8685 255.992 47.735 255.862 47.6309C255.738 47.5267 255.582 47.4518 255.393 47.4062C255.211 47.3542 254.996 47.3281 254.749 47.3281H253.323V56H251.048V45.4336H254.749C255.328 45.4336 255.849 45.4922 256.311 45.6094C256.78 45.7266 257.18 45.9056 257.512 46.1465C257.845 46.3874 258.095 46.6934 258.264 47.0645C258.44 47.429 258.528 47.862 258.528 48.3633C258.528 48.6823 258.466 48.985 258.343 49.2715C258.225 49.5579 258.046 49.8118 257.805 50.0332C257.571 50.2546 257.281 50.4368 256.936 50.5801C256.591 50.7168 256.194 50.8014 255.745 50.834L255.315 51.4883ZM255.315 56H251.897L252.845 54.1055H255.305C255.624 54.1055 255.878 54.0566 256.067 53.959C256.262 53.8548 256.406 53.7083 256.497 53.5195C256.595 53.3242 256.643 53.0898 256.643 52.8164C256.643 52.543 256.598 52.3086 256.507 52.1133C256.422 51.9115 256.282 51.7585 256.087 51.6543C255.891 51.5436 255.631 51.4883 255.305 51.4883H253.05L253.069 49.7988H255.706L256.331 50.4629C256.917 50.5085 257.402 50.6517 257.786 50.8926C258.17 51.1335 258.453 51.4362 258.636 51.8008C258.824 52.1654 258.919 52.5625 258.919 52.9922C258.919 53.487 258.837 53.9232 258.675 54.3008C258.512 54.6784 258.277 54.9941 257.971 55.248C257.672 55.4954 257.298 55.6842 256.848 55.8145C256.399 55.9382 255.888 56 255.315 56ZM262.769 51.1465V50.2969C262.769 49.4766 262.87 48.7507 263.072 48.1191C263.274 47.4876 263.56 46.9603 263.931 46.5371C264.309 46.1074 264.752 45.7852 265.259 45.5703C265.767 45.349 266.327 45.2383 266.939 45.2383C267.564 45.2383 268.13 45.349 268.638 45.5703C269.153 45.7852 269.595 46.1074 269.966 46.5371C270.344 46.9603 270.634 47.4876 270.836 48.1191C271.037 48.7507 271.138 49.4766 271.138 50.2969V51.1465C271.138 51.9668 271.037 52.6927 270.836 53.3242C270.634 53.9557 270.344 54.4863 269.966 54.916C269.595 55.3392 269.156 55.6582 268.648 55.873C268.14 56.0879 267.577 56.1953 266.959 56.1953C266.347 56.1953 265.783 56.0879 265.269 55.873C264.761 55.6582 264.319 55.3392 263.941 54.916C263.563 54.4863 263.274 53.9557 263.072 53.3242C262.87 52.6927 262.769 51.9668 262.769 51.1465ZM265.045 50.2969V51.1465C265.045 51.6738 265.09 52.1361 265.181 52.5332C265.272 52.9238 265.403 53.2493 265.572 53.5098C265.741 53.7702 265.943 53.9655 266.177 54.0957C266.412 54.2259 266.672 54.291 266.959 54.291C267.278 54.291 267.554 54.2259 267.789 54.0957C268.03 53.9655 268.228 53.7702 268.384 53.5098C268.547 53.2493 268.668 52.9238 268.746 52.5332C268.824 52.1361 268.863 51.6738 268.863 51.1465V50.2969C268.863 49.776 268.817 49.3203 268.726 48.9297C268.635 48.5326 268.505 48.2038 268.336 47.9434C268.166 47.6764 267.961 47.4779 267.72 47.3477C267.486 47.2174 267.226 47.1523 266.939 47.1523C266.659 47.1523 266.402 47.2174 266.168 47.3477C265.94 47.4779 265.741 47.6764 265.572 47.9434C265.403 48.2038 265.272 48.5326 265.181 48.9297C265.09 49.3203 265.045 49.776 265.045 50.2969ZM288.019 45.4336V47.3574H283.956V45.4336H288.019ZM284.464 45.4336V56H282.189V45.4336H284.464ZM289.835 45.4336V56H287.55V45.4336H289.835ZM294.057 51.1465V50.2969C294.057 49.4766 294.158 48.7507 294.359 48.1191C294.561 47.4876 294.848 46.9603 295.219 46.5371C295.596 46.1074 296.039 45.7852 296.547 45.5703C297.055 45.349 297.615 45.2383 298.227 45.2383C298.852 45.2383 299.418 45.349 299.926 45.5703C300.44 45.7852 300.883 46.1074 301.254 46.5371C301.632 46.9603 301.921 47.4876 302.123 48.1191C302.325 48.7507 302.426 49.4766 302.426 50.2969V51.1465C302.426 51.9668 302.325 52.6927 302.123 53.3242C301.921 53.9557 301.632 54.4863 301.254 54.916C300.883 55.3392 300.443 55.6582 299.936 55.873C299.428 56.0879 298.865 56.1953 298.246 56.1953C297.634 56.1953 297.071 56.0879 296.557 55.873C296.049 55.6582 295.606 55.3392 295.229 54.916C294.851 54.4863 294.561 53.9557 294.359 53.3242C294.158 52.6927 294.057 51.9668 294.057 51.1465ZM296.332 50.2969V51.1465C296.332 51.6738 296.378 52.1361 296.469 52.5332C296.56 52.9238 296.69 53.2493 296.859 53.5098C297.029 53.7702 297.23 53.9655 297.465 54.0957C297.699 54.2259 297.96 54.291 298.246 54.291C298.565 54.291 298.842 54.2259 299.076 54.0957C299.317 53.9655 299.516 53.7702 299.672 53.5098C299.835 53.2493 299.955 52.9238 300.033 52.5332C300.111 52.1361 300.15 51.6738 300.15 51.1465V50.2969C300.15 49.776 300.105 49.3203 300.014 48.9297C299.923 48.5326 299.792 48.2038 299.623 47.9434C299.454 47.6764 299.249 47.4779 299.008 47.3477C298.773 47.2174 298.513 47.1523 298.227 47.1523C297.947 47.1523 297.689 47.2174 297.455 47.3477C297.227 47.4779 297.029 47.6764 296.859 47.9434C296.69 48.2038 296.56 48.5326 296.469 48.9297C296.378 49.3203 296.332 49.776 296.332 50.2969ZM310.72 45.4336V56H308.434V45.4336H310.72ZM313.512 45.4336V47.3281H305.671V45.4336H313.512ZM319.638 47.4648V60.0625H317.373V45.4336H319.453L319.638 47.4648ZM325.322 50.2969V51.1367C325.322 51.9635 325.247 52.6927 325.097 53.3242C324.948 53.9557 324.726 54.4863 324.433 54.916C324.147 55.3392 323.792 55.6582 323.369 55.873C322.946 56.0879 322.451 56.1953 321.884 56.1953C321.351 56.1953 320.885 56.0781 320.488 55.8438C320.097 55.6094 319.768 55.2806 319.502 54.8574C319.235 54.4342 319.02 53.9329 318.857 53.3535C318.701 52.7676 318.587 52.1296 318.515 51.4395V50.1504C318.587 49.4212 318.698 48.7572 318.847 48.1582C319.004 47.5527 319.215 47.0319 319.482 46.5957C319.755 46.1595 320.087 45.8242 320.478 45.5898C320.869 45.3555 321.334 45.2383 321.875 45.2383C322.441 45.2383 322.939 45.3392 323.369 45.541C323.798 45.7428 324.157 46.0521 324.443 46.4688C324.736 46.8854 324.954 47.4128 325.097 48.0508C325.247 48.6823 325.322 49.431 325.322 50.2969ZM323.046 51.1367V50.2969C323.046 49.7565 323.011 49.291 322.939 48.9004C322.874 48.5033 322.763 48.1777 322.607 47.9238C322.457 47.6699 322.265 47.4811 322.031 47.3574C321.803 47.2337 321.52 47.1719 321.181 47.1719C320.882 47.1719 320.618 47.2337 320.39 47.3574C320.162 47.4811 319.97 47.6536 319.814 47.875C319.658 48.0898 319.534 48.347 319.443 48.6465C319.352 48.9395 319.293 49.2585 319.267 49.6035V51.9961C319.326 52.4128 319.423 52.7969 319.56 53.1484C319.697 53.4935 319.895 53.7702 320.156 53.9785C320.423 54.1868 320.771 54.291 321.201 54.291C321.533 54.291 321.816 54.2259 322.05 54.0957C322.285 53.9655 322.474 53.7702 322.617 53.5098C322.767 53.2493 322.874 52.9238 322.939 52.5332C323.011 52.1361 323.046 51.6706 323.046 51.1367ZM331.858 45.4336V56H329.582V45.4336H331.858ZM329.465 42.6699C329.465 42.3053 329.576 42.0026 329.797 41.7617C330.019 41.5143 330.328 41.3906 330.725 41.3906C331.122 41.3906 331.431 41.5143 331.653 41.7617C331.874 42.0026 331.985 42.3053 331.985 42.6699C331.985 43.0215 331.874 43.3177 331.653 43.5586C331.431 43.7995 331.122 43.9199 330.725 43.9199C330.328 43.9199 330.019 43.7995 329.797 43.5586C329.576 43.3177 329.465 43.0215 329.465 42.6699ZM342.007 40.8047H343.833C343.833 41.3776 343.762 41.8529 343.618 42.2305C343.482 42.6081 343.28 42.9173 343.013 43.1582C342.752 43.3926 342.43 43.5846 342.046 43.7344C341.662 43.8841 341.223 44.0176 340.728 44.1348C340.285 44.2454 339.885 44.4277 339.527 44.6816C339.175 44.9355 338.879 45.2871 338.638 45.7363C338.397 46.179 338.224 46.7454 338.12 47.4355C338.023 48.1257 338.003 48.9688 338.062 49.9648V50.6094L336.275 50.7852V50.1406C336.275 48.8971 336.369 47.8132 336.558 46.8887C336.753 45.9577 337.03 45.1732 337.388 44.5352C337.746 43.8971 338.169 43.3926 338.657 43.0215C339.152 42.6439 339.696 42.3802 340.288 42.2305C340.646 42.1263 340.952 42.0221 341.206 41.918C341.467 41.8138 341.665 41.6771 341.802 41.5078C341.939 41.332 342.007 41.0977 342.007 40.8047ZM340.835 46.0293C341.434 46.0293 341.958 46.153 342.407 46.4004C342.863 46.6413 343.247 46.9798 343.56 47.416C343.879 47.8522 344.116 48.3665 344.273 48.959C344.435 49.5514 344.517 50.196 344.517 50.8926V51.1074C344.517 51.8366 344.426 52.5137 344.243 53.1387C344.068 53.7572 343.804 54.2975 343.452 54.7598C343.107 55.2155 342.678 55.5703 342.163 55.8242C341.649 56.0781 341.06 56.2051 340.396 56.2051C339.738 56.2051 339.152 56.0716 338.638 55.8047C338.13 55.5378 337.7 55.1667 337.349 54.6914C336.997 54.2096 336.73 53.6432 336.548 52.9922C336.366 52.3411 336.275 51.6348 336.275 50.873V50.6582C336.275 50.528 336.314 50.401 336.392 50.2773C336.47 50.1471 336.564 50.0072 336.675 49.8574C336.786 49.7077 336.88 49.5352 336.958 49.3398C337.245 48.6758 337.573 48.0964 337.945 47.6016C338.322 47.1068 338.752 46.7227 339.234 46.4492C339.715 46.1693 340.249 46.0293 340.835 46.0293ZM340.386 47.9434C339.937 47.9434 339.579 48.0801 339.312 48.3535C339.045 48.6204 338.849 48.9785 338.726 49.4277C338.609 49.877 338.55 50.3652 338.55 50.8926V51.0977C338.55 51.5339 338.579 51.944 338.638 52.3281C338.703 52.7122 338.807 53.054 338.95 53.3535C339.1 53.6465 339.292 53.8776 339.527 54.0469C339.767 54.2096 340.057 54.291 340.396 54.291C340.741 54.291 341.03 54.2096 341.265 54.0469C341.499 53.8776 341.688 53.6465 341.831 53.3535C341.974 53.0605 342.079 52.722 342.144 52.3379C342.209 51.9473 342.241 51.5371 342.241 51.1074V50.8926C342.241 50.4954 342.209 50.1211 342.144 49.7695C342.079 49.4115 341.974 49.0957 341.831 48.8223C341.688 48.5488 341.496 48.334 341.255 48.1777C341.021 48.0215 340.731 47.9434 340.386 47.9434ZM354.451 49.8281V51.7227H350.105V49.8281H354.451ZM350.75 45.4336V56H348.475V45.4336H350.75ZM356.102 45.4336V56H353.826V45.4336H356.102ZM360.343 51.1465V50.2969C360.343 49.4766 360.443 48.7507 360.645 48.1191C360.847 47.4876 361.134 46.9603 361.505 46.5371C361.882 46.1074 362.325 45.7852 362.833 45.5703C363.341 45.349 363.901 45.2383 364.512 45.2383C365.137 45.2383 365.704 45.349 366.212 45.5703C366.726 45.7852 367.169 46.1074 367.54 46.5371C367.917 46.9603 368.207 47.4876 368.409 48.1191C368.611 48.7507 368.712 49.4766 368.712 50.2969V51.1465C368.712 51.9668 368.611 52.6927 368.409 53.3242C368.207 53.9557 367.917 54.4863 367.54 54.916C367.169 55.3392 366.729 55.6582 366.221 55.873C365.714 56.0879 365.151 56.1953 364.532 56.1953C363.92 56.1953 363.357 56.0879 362.843 55.873C362.335 55.6582 361.892 55.3392 361.514 54.916C361.137 54.4863 360.847 53.9557 360.645 53.3242C360.443 52.6927 360.343 51.9668 360.343 51.1465ZM362.618 50.2969V51.1465C362.618 51.6738 362.664 52.1361 362.755 52.5332C362.846 52.9238 362.976 53.2493 363.145 53.5098C363.315 53.7702 363.516 53.9655 363.751 54.0957C363.985 54.2259 364.246 54.291 364.532 54.291C364.851 54.291 365.128 54.2259 365.362 54.0957C365.603 53.9655 365.802 53.7702 365.958 53.5098C366.121 53.2493 366.241 52.9238 366.319 52.5332C366.397 52.1361 366.436 51.6738 366.436 51.1465V50.2969C366.436 49.776 366.391 49.3203 366.3 48.9297C366.208 48.5326 366.078 48.2038 365.909 47.9434C365.74 47.6764 365.535 47.4779 365.294 47.3477C365.059 47.2174 364.799 47.1523 364.512 47.1523C364.233 47.1523 363.975 47.2174 363.741 47.3477C363.513 47.4779 363.315 47.6764 363.145 47.9434C362.976 48.2038 362.846 48.5326 362.755 48.9297C362.664 49.3203 362.618 49.776 362.618 50.2969ZM384.118 51.4883H381.373L381.364 49.7988H383.571C383.909 49.7988 384.186 49.7565 384.401 49.6719C384.622 49.5807 384.785 49.4473 384.889 49.2715C385 49.0892 385.055 48.8678 385.055 48.6074C385.055 48.3861 385.023 48.194 384.957 48.0312C384.892 47.8685 384.795 47.735 384.664 47.6309C384.541 47.5267 384.385 47.4518 384.196 47.4062C384.013 47.3542 383.799 47.3281 383.551 47.3281H382.125V56H379.85V45.4336H383.551C384.131 45.4336 384.651 45.4922 385.114 45.6094C385.582 45.7266 385.983 45.9056 386.315 46.1465C386.647 46.3874 386.898 46.6934 387.067 47.0645C387.243 47.429 387.33 47.862 387.33 48.3633C387.33 48.6823 387.269 48.985 387.145 49.2715C387.028 49.5579 386.849 49.8118 386.608 50.0332C386.373 50.2546 386.084 50.4368 385.739 50.5801C385.394 50.7168 384.996 50.8014 384.547 50.834L384.118 51.4883ZM384.118 56H380.7L381.647 54.1055H384.108C384.427 54.1055 384.681 54.0566 384.87 53.959C385.065 53.8548 385.208 53.7083 385.299 53.5195C385.397 53.3242 385.446 53.0898 385.446 52.8164C385.446 52.543 385.4 52.3086 385.309 52.1133C385.224 51.9115 385.084 51.7585 384.889 51.6543C384.694 51.5436 384.433 51.4883 384.108 51.4883H381.852L381.871 49.7988H384.508L385.133 50.4629C385.719 50.5085 386.204 50.6517 386.588 50.8926C386.972 51.1335 387.256 51.4362 387.438 51.8008C387.627 52.1654 387.721 52.5625 387.721 52.9922C387.721 53.487 387.64 53.9232 387.477 54.3008C387.314 54.6784 387.08 54.9941 386.774 55.248C386.474 55.4954 386.1 55.6842 385.651 55.8145C385.202 55.9382 384.691 56 384.118 56ZM395.946 56.1953C395.263 56.1953 394.654 56.0944 394.12 55.8926C393.586 55.6842 393.134 55.3783 392.763 54.9746C392.392 54.5645 392.109 54.0632 391.913 53.4707C391.718 52.8717 391.62 52.1784 391.62 51.3906V50.375C391.62 49.4831 391.721 48.7148 391.923 48.0703C392.131 47.4193 392.418 46.8854 392.782 46.4688C393.147 46.0521 393.577 45.7428 394.071 45.541C394.573 45.3392 395.116 45.2383 395.702 45.2383C396.366 45.2383 396.943 45.3457 397.431 45.5605C397.919 45.7754 398.32 46.0977 398.632 46.5273C398.951 46.957 399.185 47.4876 399.335 48.1191C399.491 48.7507 399.57 49.4766 399.57 50.2969V51.4395H392.714V49.7207H397.323V49.4766C397.31 48.9948 397.252 48.5814 397.148 48.2363C397.043 47.8848 396.874 47.6178 396.64 47.4355C396.412 47.2467 396.096 47.1523 395.693 47.1523C395.4 47.1523 395.139 47.2077 394.911 47.3184C394.683 47.429 394.495 47.6081 394.345 47.8555C394.202 48.1029 394.091 48.4349 394.013 48.8516C393.935 49.2617 393.896 49.7695 393.896 50.375V51.3906C393.896 51.918 393.941 52.3639 394.032 52.7285C394.13 53.0931 394.273 53.3926 394.462 53.627C394.651 53.8548 394.879 54.0241 395.146 54.1348C395.419 54.2389 395.735 54.291 396.093 54.291C396.62 54.291 397.073 54.1934 397.45 53.998C397.834 53.7962 398.167 53.5358 398.446 53.2168L399.452 54.6133C399.264 54.8672 399.01 55.1178 398.691 55.3652C398.372 55.6061 397.984 55.8047 397.529 55.9609C397.079 56.1172 396.552 56.1953 395.946 56.1953ZM407.346 54.291C407.639 54.291 407.899 54.2292 408.127 54.1055C408.361 53.9818 408.547 53.7897 408.684 53.5293C408.82 53.2624 408.895 52.9173 408.908 52.4941H411.047C411.034 53.2428 410.861 53.8971 410.529 54.457C410.197 55.0104 409.755 55.4401 409.201 55.7461C408.654 56.0456 408.046 56.1953 407.375 56.1953C406.678 56.1953 406.07 56.0846 405.549 55.8633C405.035 55.6354 404.608 55.3066 404.27 54.877C403.931 54.4473 403.677 53.9264 403.508 53.3145C403.345 52.696 403.264 51.9896 403.264 51.1953V50.2383C403.264 49.4505 403.345 48.7474 403.508 48.1289C403.677 47.5104 403.931 46.9863 404.27 46.5566C404.608 46.127 405.035 45.8014 405.549 45.5801C406.063 45.3522 406.669 45.2383 407.365 45.2383C408.107 45.2383 408.749 45.3945 409.289 45.707C409.836 46.013 410.262 46.4622 410.568 47.0547C410.874 47.6471 411.034 48.373 411.047 49.2324H408.908C408.895 48.7767 408.827 48.3958 408.703 48.0898C408.579 47.7773 408.404 47.543 408.176 47.3867C407.954 47.2305 407.674 47.1523 407.336 47.1523C406.965 47.1523 406.659 47.224 406.418 47.3672C406.184 47.5039 406.001 47.7057 405.871 47.9727C405.747 48.2396 405.66 48.5651 405.607 48.9492C405.562 49.3268 405.539 49.7565 405.539 50.2383V51.1953C405.539 51.6901 405.562 52.1296 405.607 52.5137C405.653 52.8913 405.738 53.2135 405.861 53.4805C405.992 53.7474 406.177 53.9492 406.418 54.0859C406.659 54.2227 406.968 54.291 407.346 54.291ZM419.399 45.4336V56H417.114V45.4336H419.399ZM422.192 45.4336V47.3281H414.35V45.4336H422.192ZM428.377 52.1035L431.55 45.4336H433.767V56H431.511V49.3398L428.337 56H426.121V45.4336H428.377V52.1035ZM448.948 50.9512H447.152V49.75H448.577C448.87 49.75 449.101 49.6979 449.271 49.5938C449.44 49.4831 449.56 49.3301 449.632 49.1348C449.71 48.9329 449.749 48.7018 449.749 48.4414C449.749 48.2135 449.71 47.9954 449.632 47.7871C449.56 47.5723 449.437 47.3997 449.261 47.2695C449.085 47.1393 448.841 47.0742 448.529 47.0742C448.268 47.0742 448.034 47.1328 447.825 47.25C447.624 47.3607 447.464 47.5169 447.347 47.7188C447.236 47.9206 447.181 48.1549 447.181 48.4219H444.905C444.905 47.7643 445.065 47.1979 445.384 46.7227C445.709 46.2474 446.139 45.8828 446.673 45.6289C447.213 45.375 447.806 45.248 448.45 45.248C449.004 45.248 449.499 45.3164 449.935 45.4531C450.377 45.5833 450.752 45.7786 451.058 46.0391C451.37 46.293 451.608 46.612 451.771 46.9961C451.933 47.3737 452.015 47.8132 452.015 48.3145C452.015 48.6725 451.943 49.0111 451.8 49.3301C451.663 49.6491 451.458 49.9323 451.185 50.1797C450.918 50.4206 450.596 50.6094 450.218 50.7461C449.84 50.8828 449.417 50.9512 448.948 50.9512ZM447.152 50.2676H448.948C449.469 50.2676 449.931 50.3294 450.335 50.4531C450.739 50.5703 451.077 50.7461 451.351 50.9805C451.624 51.2148 451.833 51.5046 451.976 51.8496C452.119 52.1882 452.191 52.5788 452.191 53.0215C452.191 53.5163 452.099 53.9622 451.917 54.3594C451.735 54.75 451.478 55.082 451.146 55.3555C450.814 55.6289 450.42 55.8372 449.964 55.9805C449.508 56.1237 449.004 56.1953 448.45 56.1953C447.845 56.1953 447.259 56.0781 446.693 55.8438C446.133 55.6094 445.67 55.248 445.306 54.7598C444.948 54.265 444.769 53.6335 444.769 52.8652H447.044C447.044 53.1257 447.099 53.373 447.21 53.6074C447.327 53.8353 447.497 54.0208 447.718 54.1641C447.939 54.3073 448.209 54.3789 448.529 54.3789C448.854 54.3789 449.114 54.3105 449.31 54.1738C449.512 54.0306 449.661 53.8483 449.759 53.627C449.857 53.3991 449.905 53.1582 449.905 52.9043C449.905 52.5592 449.857 52.2826 449.759 52.0742C449.661 51.8594 449.515 51.7031 449.32 51.6055C449.124 51.5013 448.877 51.4492 448.577 51.4492H447.152V50.2676ZM457.945 45.4336H460.221L460.143 49.1445C460.117 50.2253 460.009 51.1562 459.82 51.9375C459.632 52.7122 459.384 53.3665 459.078 53.9004C458.772 54.4342 458.424 54.8704 458.033 55.209C457.643 55.541 457.226 55.8047 456.783 56H456.139V54.1055L456.441 54.0859C456.695 53.7799 456.907 53.4772 457.076 53.1777C457.252 52.8717 457.395 52.5365 457.506 52.1719C457.617 51.8008 457.698 51.3711 457.75 50.8828C457.809 50.3945 457.848 49.8151 457.867 49.1445L457.945 45.4336ZM458.521 45.4336H464.371V56H462.105V47.4551H458.521V45.4336ZM455.689 54.0859H465.68V59.1543H463.414V56H457.994V59.1543H455.68L455.689 54.0859ZM469.237 51.1465V50.2969C469.237 49.4766 469.338 48.7507 469.54 48.1191C469.742 47.4876 470.028 46.9603 470.399 46.5371C470.777 46.1074 471.22 45.7852 471.727 45.5703C472.235 45.349 472.795 45.2383 473.407 45.2383C474.032 45.2383 474.598 45.349 475.106 45.5703C475.621 45.7852 476.063 46.1074 476.434 46.5371C476.812 46.9603 477.102 47.4876 477.304 48.1191C477.505 48.7507 477.606 49.4766 477.606 50.2969V51.1465C477.606 51.9668 477.505 52.6927 477.304 53.3242C477.102 53.9557 476.812 54.4863 476.434 54.916C476.063 55.3392 475.624 55.6582 475.116 55.873C474.608 56.0879 474.045 56.1953 473.427 56.1953C472.815 56.1953 472.251 56.0879 471.737 55.873C471.229 55.6582 470.787 55.3392 470.409 54.916C470.031 54.4863 469.742 53.9557 469.54 53.3242C469.338 52.6927 469.237 51.9668 469.237 51.1465ZM471.513 50.2969V51.1465C471.513 51.6738 471.558 52.1361 471.649 52.5332C471.74 52.9238 471.871 53.2493 472.04 53.5098C472.209 53.7702 472.411 53.9655 472.645 54.0957C472.88 54.2259 473.14 54.291 473.427 54.291C473.746 54.291 474.022 54.2259 474.257 54.0957C474.498 53.9655 474.696 53.7702 474.852 53.5098C475.015 53.2493 475.136 52.9238 475.214 52.5332C475.292 52.1361 475.331 51.6738 475.331 51.1465V50.2969C475.331 49.776 475.285 49.3203 475.194 48.9297C475.103 48.5326 474.973 48.2038 474.804 47.9434C474.634 47.6764 474.429 47.4779 474.188 47.3477C473.954 47.2174 473.694 47.1523 473.407 47.1523C473.127 47.1523 472.87 47.2174 472.636 47.3477C472.408 47.4779 472.209 47.6764 472.04 47.9434C471.871 48.2038 471.74 48.5326 471.649 48.9297C471.558 49.3203 471.513 49.776 471.513 50.2969ZM484.045 47.4648V60.0625H481.779V45.4336H483.859L484.045 47.4648ZM489.728 50.2969V51.1367C489.728 51.9635 489.653 52.6927 489.504 53.3242C489.354 53.9557 489.132 54.4863 488.839 54.916C488.553 55.3392 488.198 55.6582 487.775 55.873C487.352 56.0879 486.857 56.1953 486.291 56.1953C485.757 56.1953 485.291 56.0781 484.894 55.8438C484.504 55.6094 484.175 55.2806 483.908 54.8574C483.641 54.4342 483.426 53.9329 483.263 53.3535C483.107 52.7676 482.993 52.1296 482.921 51.4395V50.1504C482.993 49.4212 483.104 48.7572 483.254 48.1582C483.41 47.5527 483.621 47.0319 483.888 46.5957C484.162 46.1595 484.494 45.8242 484.884 45.5898C485.275 45.3555 485.74 45.2383 486.281 45.2383C486.847 45.2383 487.345 45.3392 487.775 45.541C488.205 45.7428 488.563 46.0521 488.849 46.4688C489.142 46.8854 489.36 47.4128 489.504 48.0508C489.653 48.6823 489.728 49.431 489.728 50.2969ZM487.453 51.1367V50.2969C487.453 49.7565 487.417 49.291 487.345 48.9004C487.28 48.5033 487.17 48.1777 487.013 47.9238C486.864 47.6699 486.671 47.4811 486.437 47.3574C486.209 47.2337 485.926 47.1719 485.587 47.1719C485.288 47.1719 485.024 47.2337 484.796 47.3574C484.569 47.4811 484.377 47.6536 484.22 47.875C484.064 48.0898 483.94 48.347 483.849 48.6465C483.758 48.9395 483.699 49.2585 483.673 49.6035V51.9961C483.732 52.4128 483.83 52.7969 483.966 53.1484C484.103 53.4935 484.302 53.7702 484.562 53.9785C484.829 54.1868 485.177 54.291 485.607 54.291C485.939 54.291 486.222 54.2259 486.457 54.0957C486.691 53.9655 486.88 53.7702 487.023 53.5098C487.173 53.2493 487.28 52.9238 487.345 52.5332C487.417 52.1361 487.453 51.6706 487.453 51.1367ZM493.52 51.1465V50.2969C493.52 49.4766 493.621 48.7507 493.823 48.1191C494.024 47.4876 494.311 46.9603 494.682 46.5371C495.06 46.1074 495.502 45.7852 496.01 45.5703C496.518 45.349 497.078 45.2383 497.69 45.2383C498.315 45.2383 498.881 45.349 499.389 45.5703C499.903 45.7852 500.346 46.1074 500.717 46.5371C501.095 46.9603 501.385 47.4876 501.586 48.1191C501.788 48.7507 501.889 49.4766 501.889 50.2969V51.1465C501.889 51.9668 501.788 52.6927 501.586 53.3242C501.385 53.9557 501.095 54.4863 500.717 54.916C500.346 55.3392 499.907 55.6582 499.399 55.873C498.891 56.0879 498.328 56.1953 497.709 56.1953C497.097 56.1953 496.534 56.0879 496.02 55.873C495.512 55.6582 495.069 55.3392 494.692 54.916C494.314 54.4863 494.024 53.9557 493.823 53.3242C493.621 52.6927 493.52 51.9668 493.52 51.1465ZM495.795 50.2969V51.1465C495.795 51.6738 495.841 52.1361 495.932 52.5332C496.023 52.9238 496.153 53.2493 496.323 53.5098C496.492 53.7702 496.694 53.9655 496.928 54.0957C497.163 54.2259 497.423 54.291 497.709 54.291C498.028 54.291 498.305 54.2259 498.539 54.0957C498.78 53.9655 498.979 53.7702 499.135 53.5098C499.298 53.2493 499.418 52.9238 499.496 52.5332C499.575 52.1361 499.614 51.6738 499.614 51.1465V50.2969C499.614 49.776 499.568 49.3203 499.477 48.9297C499.386 48.5326 499.256 48.2038 499.086 47.9434C498.917 47.6764 498.712 47.4779 498.471 47.3477C498.237 47.2174 497.976 47.1523 497.69 47.1523C497.41 47.1523 497.153 47.2174 496.918 47.3477C496.691 47.4779 496.492 47.6764 496.323 47.9434C496.153 48.2038 496.023 48.5326 495.932 48.9297C495.841 49.3203 495.795 49.776 495.795 50.2969ZM510.486 51.4883H507.741L507.732 49.7988H509.939C510.277 49.7988 510.554 49.7565 510.769 49.6719C510.99 49.5807 511.153 49.4473 511.257 49.2715C511.368 49.0892 511.423 48.8678 511.423 48.6074C511.423 48.3861 511.39 48.194 511.325 48.0312C511.26 47.8685 511.163 47.735 511.032 47.6309C510.909 47.5267 510.752 47.4518 510.564 47.4062C510.381 47.3542 510.167 47.3281 509.919 47.3281H508.493V56H506.218V45.4336H509.919C510.499 45.4336 511.019 45.4922 511.482 45.6094C511.95 45.7266 512.351 45.9056 512.683 46.1465C513.015 46.3874 513.265 46.6934 513.435 47.0645C513.611 47.429 513.698 47.862 513.698 48.3633C513.698 48.6823 513.637 48.985 513.513 49.2715C513.396 49.5579 513.217 49.8118 512.976 50.0332C512.741 50.2546 512.452 50.4368 512.107 50.5801C511.762 50.7168 511.364 50.8014 510.915 50.834L510.486 51.4883ZM510.486 56H507.068L508.015 54.1055H510.476C510.795 54.1055 511.049 54.0566 511.237 53.959C511.433 53.8548 511.576 53.7083 511.667 53.5195C511.765 53.3242 511.814 53.0898 511.814 52.8164C511.814 52.543 511.768 52.3086 511.677 52.1133C511.592 51.9115 511.452 51.7585 511.257 51.6543C511.062 51.5436 510.801 51.4883 510.476 51.4883H508.22L508.239 49.7988H510.876L511.501 50.4629C512.087 50.5085 512.572 50.6517 512.956 50.8926C513.34 51.1335 513.624 51.4362 513.806 51.8008C513.995 52.1654 514.089 52.5625 514.089 52.9922C514.089 53.487 514.008 53.9232 513.845 54.3008C513.682 54.6784 513.448 54.9941 513.142 55.248C512.842 55.4954 512.468 55.6842 512.019 55.8145C511.57 55.9382 511.058 56 510.486 56ZM520.605 52.1035L523.779 45.4336H525.996V56H523.74V49.3398L520.566 56H518.35V45.4336H520.605V52.1035ZM532.884 52.1035L536.057 45.4336H538.274V56H536.018V49.3398L532.845 56H530.628V45.4336H532.884V52.1035ZM535.891 41.3613H537.649C537.649 41.9017 537.519 42.3802 537.259 42.7969C537.005 43.2135 536.64 43.5391 536.165 43.7734C535.696 44.0078 535.136 44.125 534.485 44.125C533.509 44.125 532.734 43.8678 532.161 43.3535C531.595 42.8392 531.311 42.1751 531.311 41.3613H533.069C533.069 41.7194 533.177 42.0352 533.391 42.3086C533.606 42.582 533.971 42.7188 534.485 42.7188C534.999 42.7188 535.361 42.582 535.569 42.3086C535.784 42.0352 535.891 41.7194 535.891 41.3613ZM553.387 54.291C553.68 54.291 553.941 54.2292 554.168 54.1055C554.403 53.9818 554.588 53.7897 554.725 53.5293C554.862 53.2624 554.937 52.9173 554.95 52.4941H557.088C557.075 53.2428 556.903 53.8971 556.571 54.457C556.239 55.0104 555.796 55.4401 555.243 55.7461C554.696 56.0456 554.087 56.1953 553.416 56.1953C552.72 56.1953 552.111 56.0846 551.59 55.8633C551.076 55.6354 550.649 55.3066 550.311 54.877C549.972 54.4473 549.718 53.9264 549.549 53.3145C549.386 52.696 549.305 51.9896 549.305 51.1953V50.2383C549.305 49.4505 549.386 48.7474 549.549 48.1289C549.718 47.5104 549.972 46.9863 550.311 46.5566C550.649 46.127 551.076 45.8014 551.59 45.5801C552.105 45.3522 552.71 45.2383 553.407 45.2383C554.149 45.2383 554.79 45.3945 555.33 45.707C555.877 46.013 556.304 46.4622 556.61 47.0547C556.916 47.6471 557.075 48.373 557.088 49.2324H554.95C554.937 48.7767 554.868 48.3958 554.745 48.0898C554.621 47.7773 554.445 47.543 554.217 47.3867C553.996 47.2305 553.716 47.1523 553.377 47.1523C553.006 47.1523 552.7 47.224 552.459 47.3672C552.225 47.5039 552.043 47.7057 551.913 47.9727C551.789 48.2396 551.701 48.5651 551.649 48.9492C551.603 49.3268 551.58 49.7565 551.58 50.2383V51.1953C551.58 51.6901 551.603 52.1296 551.649 52.5137C551.694 52.8913 551.779 53.2135 551.903 53.4805C552.033 53.7474 552.218 53.9492 552.459 54.0859C552.7 54.2227 553.01 54.291 553.387 54.291ZM566.964 45.4336V47.3574H562.902V45.4336H566.964ZM563.409 45.4336V56H561.134V45.4336H563.409ZM568.78 45.4336V56H566.495V45.4336H568.78ZM573.002 51.1465V50.2969C573.002 49.4766 573.103 48.7507 573.305 48.1191C573.507 47.4876 573.793 46.9603 574.164 46.5371C574.542 46.1074 574.984 45.7852 575.492 45.5703C576 45.349 576.56 45.2383 577.172 45.2383C577.797 45.2383 578.363 45.349 578.871 45.5703C579.385 45.7852 579.828 46.1074 580.199 46.5371C580.577 46.9603 580.867 47.4876 581.068 48.1191C581.27 48.7507 581.371 49.4766 581.371 50.2969V51.1465C581.371 51.9668 581.27 52.6927 581.068 53.3242C580.867 53.9557 580.577 54.4863 580.199 54.916C579.828 55.3392 579.389 55.6582 578.881 55.873C578.373 56.0879 577.81 56.1953 577.191 56.1953C576.579 56.1953 576.016 56.0879 575.502 55.873C574.994 55.6582 574.551 55.3392 574.174 54.916C573.796 54.4863 573.507 53.9557 573.305 53.3242C573.103 52.6927 573.002 51.9668 573.002 51.1465ZM575.277 50.2969V51.1465C575.277 51.6738 575.323 52.1361 575.414 52.5332C575.505 52.9238 575.635 53.2493 575.805 53.5098C575.974 53.7702 576.176 53.9655 576.41 54.0957C576.645 54.2259 576.905 54.291 577.191 54.291C577.51 54.291 577.787 54.2259 578.021 54.0957C578.262 53.9655 578.461 53.7702 578.617 53.5098C578.78 53.2493 578.9 52.9238 578.979 52.5332C579.057 52.1361 579.096 51.6738 579.096 51.1465V50.2969C579.096 49.776 579.05 49.3203 578.959 48.9297C578.868 48.5326 578.738 48.2038 578.568 47.9434C578.399 47.6764 578.194 47.4779 577.953 47.3477C577.719 47.2174 577.458 47.1523 577.172 47.1523C576.892 47.1523 576.635 47.2174 576.4 47.3477C576.173 47.4779 575.974 47.6764 575.805 47.9434C575.635 48.2038 575.505 48.5326 575.414 48.9297C575.323 49.3203 575.277 49.776 575.277 50.2969ZM589.284 54.291C589.577 54.291 589.837 54.2292 590.065 54.1055C590.3 53.9818 590.485 53.7897 590.622 53.5293C590.759 53.2624 590.833 52.9173 590.846 52.4941H592.985C592.972 53.2428 592.8 53.8971 592.468 54.457C592.136 55.0104 591.693 55.4401 591.139 55.7461C590.593 56.0456 589.984 56.1953 589.313 56.1953C588.617 56.1953 588.008 56.0846 587.487 55.8633C586.973 55.6354 586.546 55.3066 586.208 54.877C585.869 54.4473 585.615 53.9264 585.446 53.3145C585.283 52.696 585.202 51.9896 585.202 51.1953V50.2383C585.202 49.4505 585.283 48.7474 585.446 48.1289C585.615 47.5104 585.869 46.9863 586.208 46.5566C586.546 46.127 586.973 45.8014 587.487 45.5801C588.001 45.3522 588.607 45.2383 589.304 45.2383C590.046 45.2383 590.687 45.3945 591.227 45.707C591.774 46.013 592.201 46.4622 592.507 47.0547C592.813 47.6471 592.972 48.373 592.985 49.2324H590.846C590.833 48.7767 590.765 48.3958 590.641 48.0898C590.518 47.7773 590.342 47.543 590.114 47.3867C589.893 47.2305 589.613 47.1523 589.274 47.1523C588.903 47.1523 588.597 47.224 588.356 47.3672C588.122 47.5039 587.94 47.7057 587.809 47.9727C587.686 48.2396 587.598 48.5651 587.546 48.9492C587.5 49.3268 587.477 49.7565 587.477 50.2383V51.1953C587.477 51.6901 587.5 52.1296 587.546 52.5137C587.591 52.8913 587.676 53.2135 587.8 53.4805C587.93 53.7474 588.115 53.9492 588.356 54.0859C588.597 54.2227 588.906 54.291 589.284 54.291ZM599.365 45.4336V56H597.089V45.4336H599.365ZM596.972 42.6699C596.972 42.3053 597.083 42.0026 597.304 41.7617C597.526 41.5143 597.835 41.3906 598.232 41.3906C598.629 41.3906 598.938 41.5143 599.16 41.7617C599.381 42.0026 599.492 42.3053 599.492 42.6699C599.492 43.0215 599.381 43.3177 599.16 43.5586C598.938 43.7995 598.629 43.9199 598.232 43.9199C597.835 43.9199 597.526 43.7995 597.304 43.5586C597.083 43.3177 596.972 43.0215 596.972 42.6699ZM609.514 40.8047H611.34C611.34 41.3776 611.269 41.8529 611.125 42.2305C610.989 42.6081 610.787 42.9173 610.52 43.1582C610.26 43.3926 609.937 43.5846 609.553 43.7344C609.169 43.8841 608.73 44.0176 608.235 44.1348C607.792 44.2454 607.392 44.4277 607.034 44.6816C606.682 44.9355 606.386 45.2871 606.145 45.7363C605.904 46.179 605.732 46.7454 605.627 47.4355C605.53 48.1257 605.51 48.9688 605.569 49.9648V50.6094L603.782 50.7852V50.1406C603.782 48.8971 603.876 47.8132 604.065 46.8887C604.26 45.9577 604.537 45.1732 604.895 44.5352C605.253 43.8971 605.676 43.3926 606.164 43.0215C606.659 42.6439 607.203 42.3802 607.795 42.2305C608.153 42.1263 608.459 42.0221 608.713 41.918C608.974 41.8138 609.172 41.6771 609.309 41.5078C609.446 41.332 609.514 41.0977 609.514 40.8047ZM608.342 46.0293C608.941 46.0293 609.465 46.153 609.914 46.4004C610.37 46.6413 610.754 46.9798 611.067 47.416C611.386 47.8522 611.623 48.3665 611.78 48.959C611.942 49.5514 612.024 50.196 612.024 50.8926V51.1074C612.024 51.8366 611.933 52.5137 611.75 53.1387C611.575 53.7572 611.311 54.2975 610.959 54.7598C610.614 55.2155 610.185 55.5703 609.67 55.8242C609.156 56.0781 608.567 56.2051 607.903 56.2051C607.245 56.2051 606.659 56.0716 606.145 55.8047C605.637 55.5378 605.207 55.1667 604.856 54.6914C604.504 54.2096 604.237 53.6432 604.055 52.9922C603.873 52.3411 603.782 51.6348 603.782 50.873V50.6582C603.782 50.528 603.821 50.401 603.899 50.2773C603.977 50.1471 604.071 50.0072 604.182 49.8574C604.293 49.7077 604.387 49.5352 604.465 49.3398C604.752 48.6758 605.08 48.0964 605.452 47.6016C605.829 47.1068 606.259 46.7227 606.741 46.4492C607.222 46.1693 607.756 46.0293 608.342 46.0293ZM607.893 47.9434C607.444 47.9434 607.086 48.0801 606.819 48.3535C606.552 48.6204 606.357 48.9785 606.233 49.4277C606.116 49.877 606.057 50.3652 606.057 50.8926V51.0977C606.057 51.5339 606.086 51.944 606.145 52.3281C606.21 52.7122 606.314 53.054 606.457 53.3535C606.607 53.6465 606.799 53.8776 607.034 54.0469C607.274 54.2096 607.564 54.291 607.903 54.291C608.248 54.291 608.538 54.2096 608.772 54.0469C609.006 53.8776 609.195 53.6465 609.338 53.3535C609.482 53.0605 609.586 52.722 609.651 52.3379C609.716 51.9473 609.748 51.5371 609.748 51.1074V50.8926C609.748 50.4954 609.716 50.1211 609.651 49.7695C609.586 49.4115 609.482 49.0957 609.338 48.8223C609.195 48.5488 609.003 48.334 608.762 48.1777C608.528 48.0215 608.238 47.9434 607.893 47.9434ZM625.76 51.7617L622.293 45.4336H625.086L626.854 49.5742H628.641L628.328 51.7617H625.76ZM626.893 51.4102L624.988 56H622.205L625.184 50.0625L626.893 51.4102ZM629.998 45.4336V56H627.723V45.4336H629.998ZM635.447 45.4336L631.98 51.7617H629.412L629.1 49.5742H630.877L632.654 45.4336H635.447ZM632.742 56L630.828 51.4102L632.586 50.0625L635.564 56H632.742ZM641.641 52.1035L644.815 45.4336H647.032V56H644.776V49.3398L641.602 56H639.386V45.4336H641.641V52.1035ZM655.97 45.4336V56H653.685V45.4336H655.97ZM658.763 45.4336V47.3281H650.922V45.4336H658.763ZM666.998 45.4336V56H664.713V45.4336H666.998ZM669.791 45.4336V47.3281H661.95V45.4336H669.791ZM675.458 50.8242H677.802L675.253 56H672.909L675.458 50.8242ZM677.021 45.4336H680.937V56H678.671V47.3281H677.021C676.695 47.3281 676.425 47.4062 676.21 47.5625C675.995 47.7122 675.836 47.9076 675.732 48.1484C675.634 48.3828 675.585 48.627 675.585 48.8809C675.585 49.1283 675.634 49.3691 675.732 49.6035C675.829 49.8314 675.979 50.0202 676.181 50.1699C676.389 50.3132 676.65 50.3848 676.962 50.3848H679.404V52.1328H676.962C676.396 52.1328 675.885 52.0514 675.429 51.8887C674.98 51.7194 674.596 51.4883 674.277 51.1953C673.964 50.8958 673.723 50.5443 673.554 50.1406C673.391 49.737 673.31 49.2975 673.31 48.8223C673.31 48.334 673.394 47.8848 673.564 47.4746C673.733 47.0579 673.977 46.6999 674.296 46.4004C674.622 46.0944 675.012 45.8568 675.468 45.6875C675.924 45.5182 676.441 45.4336 677.021 45.4336ZM694.028 45.4336H696.304L696.225 49.1445C696.199 50.2253 696.092 51.1562 695.903 51.9375C695.714 52.7122 695.467 53.3665 695.161 53.9004C694.855 54.4342 694.507 54.8704 694.116 55.209C693.725 55.541 693.309 55.8047 692.866 56H692.221V54.1055L692.524 54.0859C692.778 53.7799 692.99 53.4772 693.159 53.1777C693.335 52.8717 693.478 52.5365 693.589 52.1719C693.699 51.8008 693.781 51.3711 693.833 50.8828C693.891 50.3945 693.93 49.8151 693.95 49.1445L694.028 45.4336ZM694.604 45.4336H700.454V56H698.188V47.4551H694.604V45.4336ZM691.772 54.0859H701.763V59.1543H699.497V56H694.077V59.1543H691.763L691.772 54.0859ZM711.58 45.4336V47.3574H707.332V45.4336H711.58ZM713.386 45.4336V56H711.121V45.4336H713.386ZM706.775 45.4336H709.031L708.777 50.668C708.738 51.4427 708.666 52.1263 708.562 52.7188C708.464 53.3047 708.331 53.806 708.162 54.2227C707.999 54.6393 707.794 54.9811 707.547 55.248C707.306 55.5085 707.026 55.7005 706.707 55.8242C706.394 55.9414 706.039 56 705.642 56H704.959L704.949 54.0273L705.271 53.9883C705.466 53.9688 705.636 53.9069 705.779 53.8027C705.922 53.6986 706.043 53.5456 706.14 53.3438C706.238 53.1419 706.316 52.8848 706.375 52.5723C706.44 52.2533 706.489 51.8789 706.521 51.4492C706.56 51.013 706.589 50.5117 706.609 49.9453L706.775 45.4336ZM719.766 50.8242H722.11L719.561 56H717.217L719.766 50.8242ZM721.328 45.4336H725.245V56H722.979V47.3281H721.328C721.003 47.3281 720.733 47.4062 720.518 47.5625C720.303 47.7122 720.144 47.9076 720.039 48.1484C719.942 48.3828 719.893 48.627 719.893 48.8809C719.893 49.1283 719.942 49.3691 720.039 49.6035C720.137 49.8314 720.287 50.0202 720.489 50.1699C720.697 50.3132 720.957 50.3848 721.27 50.3848H723.711V52.1328H721.27C720.703 52.1328 720.192 52.0514 719.737 51.8887C719.287 51.7194 718.903 51.4883 718.584 51.1953C718.272 50.8958 718.031 50.5443 717.862 50.1406C717.699 49.737 717.618 49.2975 717.618 48.8223C717.618 48.334 717.702 47.8848 717.871 47.4746C718.041 47.0579 718.285 46.6999 718.604 46.4004C718.929 46.0944 719.32 45.8568 719.776 45.6875C720.231 45.5182 720.749 45.4336 721.328 45.4336ZM738.336 45.4336H740.611L740.533 49.1445C740.507 50.2253 740.4 51.1562 740.211 51.9375C740.022 52.7122 739.775 53.3665 739.469 53.9004C739.163 54.4342 738.814 54.8704 738.424 55.209C738.033 55.541 737.617 55.8047 737.174 56H736.529V54.1055L736.832 54.0859C737.086 53.7799 737.298 53.4772 737.467 53.1777C737.643 52.8717 737.786 52.5365 737.896 52.1719C738.007 51.8008 738.089 51.3711 738.141 50.8828C738.199 50.3945 738.238 49.8151 738.258 49.1445L738.336 45.4336ZM738.912 45.4336H744.762V56H742.496V47.4551H738.912V45.4336ZM736.08 54.0859H746.07V59.1543H743.805V56H738.385V59.1543H736.07L736.08 54.0859ZM749.628 51.1465V50.2969C749.628 49.4766 749.729 48.7507 749.93 48.1191C750.132 47.4876 750.419 46.9603 750.79 46.5371C751.167 46.1074 751.61 45.7852 752.118 45.5703C752.626 45.349 753.186 45.2383 753.798 45.2383C754.423 45.2383 754.989 45.349 755.497 45.5703C756.011 45.7852 756.454 46.1074 756.825 46.5371C757.203 46.9603 757.492 47.4876 757.694 48.1191C757.896 48.7507 757.997 49.4766 757.997 50.2969V51.1465C757.997 51.9668 757.896 52.6927 757.694 53.3242C757.492 53.9557 757.203 54.4863 756.825 54.916C756.454 55.3392 756.014 55.6582 755.507 55.873C754.999 56.0879 754.436 56.1953 753.817 56.1953C753.205 56.1953 752.642 56.0879 752.128 55.873C751.62 55.6582 751.177 55.3392 750.8 54.916C750.422 54.4863 750.132 53.9557 749.93 53.3242C749.729 52.6927 749.628 51.9668 749.628 51.1465ZM751.903 50.2969V51.1465C751.903 51.6738 751.949 52.1361 752.04 52.5332C752.131 52.9238 752.261 53.2493 752.43 53.5098C752.6 53.7702 752.802 53.9655 753.036 54.0957C753.27 54.2259 753.531 54.291 753.817 54.291C754.136 54.291 754.413 54.2259 754.647 54.0957C754.888 53.9655 755.087 53.7702 755.243 53.5098C755.406 53.2493 755.526 52.9238 755.604 52.5332C755.682 52.1361 755.721 51.6738 755.721 51.1465V50.2969C755.721 49.776 755.676 49.3203 755.585 48.9297C755.494 48.5326 755.363 48.2038 755.194 47.9434C755.025 47.6764 754.82 47.4779 754.579 47.3477C754.345 47.2174 754.084 47.1523 753.798 47.1523C753.518 47.1523 753.261 47.2174 753.026 47.3477C752.798 47.4779 752.6 47.6764 752.43 47.9434C752.261 48.2038 752.131 48.5326 752.04 48.9297C751.949 49.3203 751.903 49.776 751.903 50.2969ZM765.91 54.291C766.203 54.291 766.463 54.2292 766.691 54.1055C766.925 53.9818 767.111 53.7897 767.248 53.5293C767.384 53.2624 767.459 52.9173 767.472 52.4941H769.611C769.598 53.2428 769.425 53.8971 769.093 54.457C768.761 55.0104 768.319 55.4401 767.765 55.7461C767.218 56.0456 766.61 56.1953 765.939 56.1953C765.242 56.1953 764.634 56.0846 764.113 55.8633C763.599 55.6354 763.172 55.3066 762.834 54.877C762.495 54.4473 762.241 53.9264 762.072 53.3145C761.909 52.696 761.828 51.9896 761.828 51.1953V50.2383C761.828 49.4505 761.909 48.7474 762.072 48.1289C762.241 47.5104 762.495 46.9863 762.834 46.5566C763.172 46.127 763.599 45.8014 764.113 45.5801C764.627 45.3522 765.233 45.2383 765.929 45.2383C766.672 45.2383 767.313 45.3945 767.853 45.707C768.4 46.013 768.826 46.4622 769.132 47.0547C769.438 47.6471 769.598 48.373 769.611 49.2324H767.472C767.459 48.7767 767.391 48.3958 767.267 48.0898C767.144 47.7773 766.968 47.543 766.74 47.3867C766.519 47.2305 766.239 47.1523 765.9 47.1523C765.529 47.1523 765.223 47.224 764.982 47.3672C764.748 47.5039 764.565 47.7057 764.435 47.9727C764.311 48.2396 764.224 48.5651 764.172 48.9492C764.126 49.3268 764.103 49.7565 764.103 50.2383V51.1953C764.103 51.6901 764.126 52.1296 764.172 52.5137C764.217 52.8913 764.302 53.2135 764.425 53.4805C764.556 53.7474 764.741 53.9492 764.982 54.0859C765.223 54.2227 765.532 54.291 765.91 54.291ZM775.395 50.8242H777.739L775.19 56H772.846L775.395 50.8242ZM776.957 45.4336H780.873V56H778.608V47.3281H776.957C776.632 47.3281 776.362 47.4062 776.147 47.5625C775.932 47.7122 775.773 47.9076 775.668 48.1484C775.571 48.3828 775.522 48.627 775.522 48.8809C775.522 49.1283 775.571 49.3691 775.668 49.6035C775.766 49.8314 775.916 50.0202 776.118 50.1699C776.326 50.3132 776.586 50.3848 776.899 50.3848H779.34V52.1328H776.899C776.332 52.1328 775.821 52.0514 775.366 51.8887C774.916 51.7194 774.532 51.4883 774.213 51.1953C773.901 50.8958 773.66 50.5443 773.491 50.1406C773.328 49.737 773.246 49.2975 773.246 48.8223C773.246 48.334 773.331 47.8848 773.5 47.4746C773.67 47.0579 773.914 46.6999 774.233 46.4004C774.558 46.0944 774.949 45.8568 775.405 45.6875C775.86 45.5182 776.378 45.4336 776.957 45.4336ZM791.56 45.4336V47.3574H787.888V56H785.612V45.4336H791.56ZM801.221 49.8281V51.7227H796.875V49.8281H801.221ZM797.52 45.4336V56H795.244V45.4336H797.52ZM802.871 45.4336V56H800.596V45.4336H802.871ZM811.487 56.1953C810.804 56.1953 810.195 56.0944 809.661 55.8926C809.127 55.6842 808.675 55.3783 808.304 54.9746C807.932 54.5645 807.649 54.0632 807.454 53.4707C807.259 52.8717 807.161 52.1784 807.161 51.3906V50.375C807.161 49.4831 807.262 48.7148 807.464 48.0703C807.672 47.4193 807.958 46.8854 808.323 46.4688C808.688 46.0521 809.117 45.7428 809.612 45.541C810.113 45.3392 810.657 45.2383 811.243 45.2383C811.907 45.2383 812.483 45.3457 812.971 45.5605C813.46 45.7754 813.86 46.0977 814.173 46.5273C814.492 46.957 814.726 47.4876 814.876 48.1191C815.032 48.7507 815.11 49.4766 815.11 50.2969V51.4395H808.255V49.7207H812.864V49.4766C812.851 48.9948 812.792 48.5814 812.688 48.2363C812.584 47.8848 812.415 47.6178 812.18 47.4355C811.953 47.2467 811.637 47.1523 811.233 47.1523C810.94 47.1523 810.68 47.2077 810.452 47.3184C810.224 47.429 810.035 47.6081 809.886 47.8555C809.742 48.1029 809.632 48.4349 809.554 48.8516C809.475 49.2617 809.436 49.7695 809.436 50.375V51.3906C809.436 51.918 809.482 52.3639 809.573 52.7285C809.671 53.0931 809.814 53.3926 810.003 53.627C810.192 53.8548 810.419 54.0241 810.686 54.1348C810.96 54.2389 811.276 54.291 811.634 54.291C812.161 54.291 812.613 54.1934 812.991 53.998C813.375 53.7962 813.707 53.5358 813.987 53.2168L814.993 54.6133C814.804 54.8672 814.55 55.1178 814.231 55.3652C813.912 55.6061 813.525 55.8047 813.069 55.9609C812.62 56.1172 812.093 56.1953 811.487 56.1953ZM825.191 49.8281V51.7227H820.845V49.8281H825.191ZM821.49 45.4336V56H819.214V45.4336H821.49ZM826.841 45.4336V56H824.566V45.4336H826.841ZM837.469 49.8281V51.7227H833.123V49.8281H837.469ZM833.768 45.4336V56H831.493V45.4336H833.768ZM839.12 45.4336V56H836.844V45.4336H839.12ZM845.509 50.8242H847.853L845.304 56H842.96L845.509 50.8242ZM847.071 45.4336H850.987V56H848.722V47.3281H847.071C846.746 47.3281 846.476 47.4062 846.261 47.5625C846.046 47.7122 845.887 47.9076 845.782 48.1484C845.685 48.3828 845.636 48.627 845.636 48.8809C845.636 49.1283 845.685 49.3691 845.782 49.6035C845.88 49.8314 846.03 50.0202 846.232 50.1699C846.44 50.3132 846.7 50.3848 847.013 50.3848H849.454V52.1328H847.013C846.446 52.1328 845.935 52.0514 845.48 51.8887C845.03 51.7194 844.646 51.4883 844.327 51.1953C844.015 50.8958 843.774 50.5443 843.605 50.1406C843.442 49.737 843.361 49.2975 843.361 48.8223C843.361 48.334 843.445 47.8848 843.614 47.4746C843.784 47.0579 844.028 46.6999 844.347 46.4004C844.672 46.0944 845.063 45.8568 845.519 45.6875C845.974 45.5182 846.492 45.4336 847.071 45.4336ZM865.036 54.8379L867.302 45.4336H869.694L866.208 57.6016C866.13 57.8685 866.019 58.1549 865.876 58.4609C865.739 58.7669 865.56 59.0566 865.339 59.3301C865.124 59.61 864.854 59.8346 864.528 60.0039C864.209 60.1797 863.828 60.2676 863.386 60.2676C863.203 60.2676 863.027 60.2513 862.858 60.2188C862.689 60.1862 862.526 60.1471 862.37 60.1016V58.2656C862.422 58.2721 862.481 58.2786 862.546 58.2852C862.611 58.2917 862.669 58.2949 862.721 58.2949C863.041 58.2949 863.304 58.2461 863.513 58.1484C863.721 58.0573 863.893 57.9076 864.03 57.6992C864.167 57.4974 864.287 57.2272 864.391 56.8887L865.036 54.8379ZM864.03 45.4336L865.886 53.2949L866.286 55.8438L864.723 56.2441L861.579 45.4336H864.03ZM879.228 45.4336V47.3574H875.166V45.4336H879.228ZM875.673 45.4336V56H873.398V45.4336H875.673ZM881.045 45.4336V56H878.759V45.4336H881.045ZM888.01 45.4336V56H885.735V45.4336H888.01ZM885.618 42.6699C885.618 42.3053 885.728 42.0026 885.95 41.7617C886.171 41.5143 886.48 41.3906 886.877 41.3906C887.274 41.3906 887.584 41.5143 887.805 41.7617C888.026 42.0026 888.137 42.3053 888.137 42.6699C888.137 43.0215 888.026 43.3177 887.805 43.5586C887.584 43.7995 887.274 43.9199 886.877 43.9199C886.48 43.9199 886.171 43.7995 885.95 43.5586C885.728 43.3177 885.618 43.0215 885.618 42.6699ZM894.487 45.4336L896.011 48.6562L897.446 45.4336H899.937L897.163 50.6191L900.034 56H897.544L895.962 52.6699L894.409 56H891.909L894.712 50.6387L891.997 45.4336H894.487ZM906.336 54.8379L908.602 45.4336H910.994L907.508 57.6016C907.43 57.8685 907.319 58.1549 907.176 58.4609C907.039 58.7669 906.86 59.0566 906.639 59.3301C906.424 59.61 906.154 59.8346 905.828 60.0039C905.509 60.1797 905.128 60.2676 904.686 60.2676C904.503 60.2676 904.327 60.2513 904.158 60.2188C903.989 60.1862 903.826 60.1471 903.67 60.1016V58.2656C903.722 58.2721 903.781 58.2786 903.846 58.2852C903.911 58.2917 903.969 58.2949 904.021 58.2949C904.34 58.2949 904.604 58.2461 904.812 58.1484C905.021 58.0573 905.193 57.9076 905.33 57.6992C905.467 57.4974 905.587 57.2272 905.691 56.8887L906.336 54.8379ZM905.33 45.4336L907.186 53.2949L907.586 55.8438L906.023 56.2441L902.879 45.4336H905.33Z" fill="white"/>
<rect width="74" height="2" transform="translate(34 51)" fill="#266730"/>
<path d="M64.4941 99.7812V114H62.1309V99.7812H64.4941ZM68.1172 99.7812V101.773H58.5469V99.7812H68.1172ZM75.5223 111.852V106.588C75.5223 106.223 75.4702 105.93 75.366 105.709C75.2684 105.488 75.1219 105.328 74.9266 105.23C74.7378 105.126 74.5001 105.074 74.2137 105.074C73.9142 105.074 73.6603 105.136 73.452 105.26C73.2501 105.383 73.0971 105.553 72.993 105.768C72.8888 105.976 72.8367 106.217 72.8367 106.49H70.5613C70.5613 106.067 70.646 105.66 70.8152 105.27C70.991 104.879 71.2417 104.531 71.5672 104.225C71.8927 103.919 72.2866 103.678 72.7488 103.502C73.2111 103.326 73.7254 103.238 74.2918 103.238C74.9689 103.238 75.5711 103.352 76.0984 103.58C76.6258 103.801 77.0392 104.163 77.3387 104.664C77.6447 105.159 77.7977 105.81 77.7977 106.617V111.549C77.7977 112.037 77.827 112.473 77.8855 112.857C77.9507 113.235 78.0385 113.564 78.1492 113.844V114H75.8348C75.7306 113.746 75.6525 113.421 75.6004 113.023C75.5483 112.626 75.5223 112.236 75.5223 111.852ZM75.825 107.564L75.8348 109.039H74.741C74.4155 109.039 74.1225 109.085 73.8621 109.176C73.6017 109.26 73.3803 109.384 73.198 109.547C73.0223 109.703 72.8855 109.895 72.7879 110.123C72.6967 110.351 72.6512 110.602 72.6512 110.875C72.6512 111.207 72.6967 111.477 72.7879 111.686C72.8855 111.894 73.0255 112.05 73.2078 112.154C73.3966 112.252 73.6245 112.301 73.8914 112.301C74.256 112.301 74.5717 112.223 74.8387 112.066C75.1121 111.904 75.3204 111.708 75.4637 111.48C75.6134 111.253 75.672 111.044 75.6395 110.855L76.157 111.803C76.1049 112.05 76.0073 112.311 75.8641 112.584C75.7273 112.857 75.5483 113.118 75.327 113.365C75.1056 113.613 74.8387 113.814 74.5262 113.971C74.2137 114.12 73.8523 114.195 73.4422 114.195C72.8497 114.195 72.3224 114.072 71.8602 113.824C71.3979 113.577 71.0333 113.222 70.7664 112.76C70.506 112.291 70.3758 111.731 70.3758 111.08C70.3758 110.553 70.4637 110.074 70.6395 109.645C70.8152 109.215 71.0757 108.847 71.4207 108.541C71.7658 108.229 72.1987 107.988 72.7195 107.818C73.2469 107.649 73.8621 107.564 74.5652 107.564H75.825ZM84.7926 103.434V114H82.5074V103.434H84.7926ZM90.5641 103.434L86.5406 109.82H84.2555L83.943 107.633H85.5445L87.7516 103.434H90.5641ZM87.8395 114L85.4273 109.41L87.2242 108.062L90.7984 114H87.8395Z" fill="white"/>
<rect x="58" y="129" width="1084" height="9" rx="4.5" fill="#101317"/>
<rect width="804" height="9" transform="translate(62 129)" fill="#266730"/>
<path d="M1119.48 113.469V114.26L1116.68 122H1115.24L1118.05 114.617H1114.45V113.469H1119.48ZM1123.35 117.084H1124.08C1124.33 117.084 1124.53 117.029 1124.7 116.92C1124.86 116.807 1124.98 116.652 1125.06 116.457C1125.14 116.258 1125.18 116.031 1125.18 115.777C1125.18 115.512 1125.14 115.283 1125.06 115.092C1124.99 114.9 1124.89 114.754 1124.74 114.652C1124.6 114.551 1124.42 114.5 1124.2 114.5C1124.02 114.5 1123.85 114.549 1123.7 114.646C1123.55 114.74 1123.43 114.877 1123.35 115.057C1123.27 115.232 1123.22 115.441 1123.22 115.684H1121.86C1121.86 115.23 1121.96 114.828 1122.16 114.477C1122.36 114.125 1122.63 113.85 1122.98 113.65C1123.33 113.447 1123.73 113.346 1124.18 113.346C1124.64 113.346 1125.05 113.438 1125.4 113.621C1125.76 113.805 1126.04 114.076 1126.24 114.436C1126.44 114.795 1126.54 115.24 1126.54 115.771C1126.54 116.018 1126.49 116.266 1126.4 116.516C1126.31 116.766 1126.17 116.994 1125.98 117.201C1125.79 117.404 1125.56 117.568 1125.28 117.693C1125 117.818 1124.68 117.881 1124.3 117.881H1123.35V117.084ZM1123.35 118.209V117.424H1124.3C1124.74 117.424 1125.1 117.482 1125.4 117.6C1125.7 117.713 1125.94 117.873 1126.12 118.08C1126.3 118.283 1126.44 118.518 1126.52 118.783C1126.6 119.045 1126.64 119.32 1126.64 119.609C1126.64 120.008 1126.58 120.363 1126.45 120.676C1126.33 120.984 1126.16 121.248 1125.93 121.467C1125.7 121.682 1125.44 121.844 1125.15 121.953C1124.85 122.062 1124.53 122.117 1124.17 122.117C1123.86 122.117 1123.56 122.066 1123.27 121.965C1122.99 121.863 1122.73 121.713 1122.51 121.514C1122.29 121.311 1122.12 121.059 1121.99 120.758C1121.86 120.453 1121.8 120.1 1121.8 119.697H1123.16C1123.16 119.947 1123.2 120.168 1123.29 120.359C1123.37 120.551 1123.49 120.701 1123.65 120.811C1123.8 120.916 1123.98 120.969 1124.19 120.969C1124.41 120.969 1124.61 120.916 1124.77 120.811C1124.93 120.705 1125.05 120.551 1125.14 120.348C1125.23 120.145 1125.28 119.898 1125.28 119.609C1125.28 119.285 1125.23 119.02 1125.13 118.812C1125.03 118.605 1124.9 118.453 1124.72 118.355C1124.55 118.258 1124.34 118.209 1124.09 118.209H1123.35ZM1129.24 115.561V115.109C1129.24 114.785 1129.3 114.49 1129.41 114.225C1129.53 113.959 1129.71 113.746 1129.94 113.586C1130.17 113.426 1130.45 113.346 1130.78 113.346C1131.12 113.346 1131.4 113.426 1131.63 113.586C1131.87 113.746 1132.04 113.959 1132.16 114.225C1132.28 114.49 1132.34 114.785 1132.34 115.109V115.561C1132.34 115.877 1132.28 116.168 1132.16 116.434C1132.04 116.699 1131.87 116.912 1131.64 117.072C1131.41 117.232 1131.13 117.312 1130.79 117.312C1130.46 117.312 1130.18 117.232 1129.94 117.072C1129.71 116.912 1129.53 116.699 1129.41 116.434C1129.3 116.168 1129.24 115.877 1129.24 115.561ZM1130.17 115.109V115.561C1130.17 115.717 1130.19 115.863 1130.23 116C1130.28 116.137 1130.35 116.248 1130.44 116.334C1130.53 116.42 1130.65 116.463 1130.79 116.463C1130.93 116.463 1131.05 116.42 1131.14 116.334C1131.23 116.248 1131.29 116.137 1131.34 116C1131.38 115.863 1131.4 115.717 1131.4 115.561V115.109C1131.4 114.949 1131.38 114.801 1131.33 114.664C1131.29 114.523 1131.22 114.41 1131.12 114.324C1131.03 114.238 1130.92 114.195 1130.78 114.195C1130.64 114.195 1130.53 114.238 1130.44 114.324C1130.35 114.41 1130.28 114.523 1130.23 114.664C1130.19 114.801 1130.17 114.949 1130.17 115.109ZM1132.64 120.365V119.908C1132.64 119.588 1132.7 119.295 1132.82 119.029C1132.94 118.764 1133.12 118.551 1133.35 118.391C1133.58 118.23 1133.86 118.15 1134.19 118.15C1134.53 118.15 1134.81 118.23 1135.04 118.391C1135.27 118.551 1135.44 118.764 1135.56 119.029C1135.68 119.295 1135.74 119.588 1135.74 119.908V120.365C1135.74 120.686 1135.68 120.979 1135.57 121.244C1135.45 121.51 1135.27 121.723 1135.04 121.883C1134.81 122.043 1134.53 122.123 1134.2 122.123C1133.86 122.123 1133.58 122.043 1133.35 121.883C1133.11 121.723 1132.94 121.51 1132.82 121.244C1132.7 120.979 1132.64 120.686 1132.64 120.365ZM1133.57 119.908V120.365C1133.57 120.518 1133.6 120.664 1133.65 120.805C1133.7 120.941 1133.77 121.053 1133.86 121.139C1133.95 121.225 1134.07 121.268 1134.2 121.268C1134.35 121.268 1134.47 121.225 1134.56 121.139C1134.65 121.053 1134.71 120.941 1134.75 120.805C1134.79 120.668 1134.81 120.521 1134.81 120.365V119.908C1134.81 119.748 1134.79 119.6 1134.74 119.463C1134.7 119.326 1134.63 119.215 1134.53 119.129C1134.44 119.043 1134.33 119 1134.19 119C1134.05 119 1133.94 119.043 1133.84 119.129C1133.75 119.215 1133.68 119.328 1133.64 119.469C1133.6 119.605 1133.57 119.752 1133.57 119.908ZM1134.55 114.688L1131.05 121.355L1130.37 120.934L1133.87 114.266L1134.55 114.688Z" fill="white"/>
<path d="M67.1309 168.699V170.691H61.1445V168.699H67.1309ZM61.7012 162.781V177H59.3281V162.781H61.7012ZM68.9863 162.781V177H66.623V162.781H68.9863ZM76.0984 166.434V177H73.823V166.434H76.0984ZM73.7059 163.67C73.7059 163.305 73.8165 163.003 74.0379 162.762C74.2592 162.514 74.5685 162.391 74.9656 162.391C75.3628 162.391 75.672 162.514 75.8934 162.762C76.1147 163.003 76.2254 163.305 76.2254 163.67C76.2254 164.021 76.1147 164.318 75.8934 164.559C75.672 164.799 75.3628 164.92 74.9656 164.92C74.5685 164.92 74.2592 164.799 74.0379 164.559C73.8165 164.318 73.7059 164.021 73.7059 163.67Z" fill="white"/>
<rect x="72" y="192" width="1070" height="9" rx="4.5" fill="#101317"/>
<rect width="296" height="9" transform="translate(62 192)" fill="#266730"/>
<path d="M1120.53 180.852V182H1115.62V181.01L1117.94 177.992C1118.2 177.652 1118.39 177.359 1118.53 177.113C1118.67 176.863 1118.77 176.639 1118.82 176.439C1118.88 176.24 1118.9 176.045 1118.9 175.854C1118.9 175.588 1118.87 175.354 1118.79 175.15C1118.72 174.947 1118.62 174.789 1118.47 174.676C1118.33 174.559 1118.16 174.5 1117.96 174.5C1117.71 174.5 1117.5 174.568 1117.33 174.705C1117.17 174.838 1117.05 175.023 1116.97 175.262C1116.89 175.496 1116.85 175.766 1116.85 176.07H1115.49C1115.49 175.57 1115.58 175.115 1115.77 174.705C1115.97 174.291 1116.25 173.963 1116.62 173.721C1116.99 173.475 1117.45 173.352 1117.98 173.352C1118.47 173.352 1118.88 173.447 1119.22 173.639C1119.57 173.83 1119.83 174.104 1120 174.459C1120.18 174.811 1120.27 175.227 1120.27 175.707C1120.27 175.973 1120.24 176.238 1120.16 176.504C1120.09 176.766 1119.99 177.025 1119.86 177.283C1119.73 177.541 1119.58 177.801 1119.39 178.062C1119.21 178.324 1119.02 178.59 1118.8 178.859L1117.33 180.852H1120.53ZM1127.8 173.469V174.26L1125 182H1123.56L1126.37 174.617H1122.77V173.469H1127.8ZM1130.24 175.561V175.109C1130.24 174.785 1130.3 174.49 1130.41 174.225C1130.53 173.959 1130.71 173.746 1130.94 173.586C1131.17 173.426 1131.45 173.346 1131.78 173.346C1132.12 173.346 1132.4 173.426 1132.63 173.586C1132.87 173.746 1133.04 173.959 1133.16 174.225C1133.28 174.49 1133.34 174.785 1133.34 175.109V175.561C1133.34 175.877 1133.28 176.168 1133.16 176.434C1133.04 176.699 1132.87 176.912 1132.64 177.072C1132.41 177.232 1132.13 177.312 1131.79 177.312C1131.46 177.312 1131.18 177.232 1130.94 177.072C1130.71 176.912 1130.53 176.699 1130.41 176.434C1130.3 176.168 1130.24 175.877 1130.24 175.561ZM1131.17 175.109V175.561C1131.17 175.717 1131.19 175.863 1131.23 176C1131.28 176.137 1131.35 176.248 1131.44 176.334C1131.53 176.42 1131.65 176.463 1131.79 176.463C1131.93 176.463 1132.05 176.42 1132.14 176.334C1132.23 176.248 1132.29 176.137 1132.34 176C1132.38 175.863 1132.4 175.717 1132.4 175.561V175.109C1132.4 174.949 1132.38 174.801 1132.33 174.664C1132.29 174.523 1132.22 174.41 1132.12 174.324C1132.03 174.238 1131.92 174.195 1131.78 174.195C1131.64 174.195 1131.53 174.238 1131.44 174.324C1131.35 174.41 1131.28 174.523 1131.23 174.664C1131.19 174.801 1131.17 174.949 1131.17 175.109ZM1133.64 180.365V179.908C1133.64 179.588 1133.7 179.295 1133.82 179.029C1133.94 178.764 1134.12 178.551 1134.35 178.391C1134.58 178.23 1134.86 178.15 1135.19 178.15C1135.53 178.15 1135.81 178.23 1136.04 178.391C1136.27 178.551 1136.44 178.764 1136.56 179.029C1136.68 179.295 1136.74 179.588 1136.74 179.908V180.365C1136.74 180.686 1136.68 180.979 1136.57 181.244C1136.45 181.51 1136.27 181.723 1136.04 181.883C1135.81 182.043 1135.53 182.123 1135.2 182.123C1134.86 182.123 1134.58 182.043 1134.35 181.883C1134.11 181.723 1133.94 181.51 1133.82 181.244C1133.7 180.979 1133.64 180.686 1133.64 180.365ZM1134.57 179.908V180.365C1134.57 180.518 1134.6 180.664 1134.65 180.805C1134.7 180.941 1134.77 181.053 1134.86 181.139C1134.95 181.225 1135.07 181.268 1135.2 181.268C1135.35 181.268 1135.47 181.225 1135.56 181.139C1135.65 181.053 1135.71 180.941 1135.75 180.805C1135.79 180.668 1135.81 180.521 1135.81 180.365V179.908C1135.81 179.748 1135.79 179.6 1135.74 179.463C1135.7 179.326 1135.63 179.215 1135.53 179.129C1135.44 179.043 1135.33 179 1135.19 179C1135.05 179 1134.94 179.043 1134.84 179.129C1134.75 179.215 1134.68 179.328 1134.64 179.469C1134.6 179.605 1134.57 179.752 1134.57 179.908ZM1135.55 174.688L1132.05 181.355L1131.37 180.934L1134.87 174.266L1135.55 174.688Z" fill="white"/>
</svg>
